<svg width="24" height="24" viewBox="0 0 24 24" fill="none" xmlns="http://www.w3.org/2000/svg">
<path d="M18.4311 18.4431L17.6826 18.3949L18.4311 18.4431ZM5.56891 18.4431L4.82047 18.4914V18.4914L5.56891 18.4431ZM21.25 5C21.6642 5 22 5.33579 22 5.75C22 6.16421 21.6642 6.5 21.25 6.5V5ZM2.75 6.5C2.33579 6.5 2 6.16421 2 5.75C2 5.33579 2.33579 5 2.75 5V6.5ZM13.5 10.75C13.5 10.3358 13.8358 10 14.25 10C14.6642 10 15 10.3358 15 10.75H13.5ZM15 16.25C15 16.6642 14.6642 17 14.25 17C13.8358 17 13.5 16.6642 13.5 16.25H15ZM9 10.75C9 10.3358 9.33579 10 9.75 10C10.1642 10 10.5 10.3358 10.5 10.75H9ZM10.5 16.25C10.5 16.6642 10.1642 17 9.75 17C9.33579 17 9 16.6642 9 16.25H10.5ZM8.85233 5.93694C8.74908 6.33808 8.34019 6.57957 7.93905 6.47633C7.53791 6.37308 7.29642 5.9642 7.39967 5.56306L8.85233 5.93694ZM19.9984 5.79829L19.1795 18.4914L17.6826 18.3949L18.5016 5.70171L19.9984 5.79829ZM15.4373 22H8.56269V20.5H15.4373V22ZM4.82047 18.4914L4.00156 5.79829L5.49844 5.70171L6.31736 18.3949L4.82047 18.4914ZM4.75 5H19.25V6.5H4.75V5ZM21.25 6.5H19.25V5H21.25V6.5ZM4.75 6.5H2.75V5H4.75V6.5ZM8.56269 22C6.58535 22 4.94777 20.4647 4.82047 18.4914L6.31736 18.3949C6.39374 19.5788 7.37629 20.5 8.56269 20.5V22ZM19.1795 18.4914C19.0522 20.4647 17.4146 22 15.4373 22V20.5C16.6237 20.5 17.6063 19.5788 17.6826 18.3949L19.1795 18.4914ZM15 10.75V16.25H13.5V10.75H15ZM10.5 10.75V16.25H9V10.75H10.5ZM12 3.5C10.4866 3.5 9.21315 4.53504 8.85233 5.93694L7.39967 5.56306C7.92693 3.51451 9.78564 2 12 2V3.5ZM15.1476 5.93694C14.7868 4.53504 13.5133 3.5 12 3.5V2C14.2143 2 16.073 3.51451 16.6003 5.56306L15.1476 5.93694Z" fill="#E93A67"/>
</svg>
